<?xml version="1.0" encoding="UTF-8" standalone="no"?>
<svg
   xmlns:dc="http://purl.org/dc/elements/1.1/"
   xmlns:cc="http://creativecommons.org/ns#"
   xmlns:rdf="http://www.w3.org/1999/02/22-rdf-syntax-ns#"
   xmlns:svg="http://www.w3.org/2000/svg"
   xmlns="http://www.w3.org/2000/svg"
   xmlns:sodipodi="http://sodipodi.sourceforge.net/DTD/sodipodi-0.dtd"
   xmlns:inkscape="http://www.inkscape.org/namespaces/inkscape"
   width="210mm"
   height="297mm"
   viewBox="0 0 210 297"
   version="1.1"
   id="svg8"
   sodipodi:docname="drawing.svg"
   inkscape:version="1.0.2-2 (e86c870879, 2021-01-15)">
  <defs
     id="defs2">
    <marker
       style="overflow:visible"
       id="TriangleOutM"
       refX="0.0"
       refY="0.0"
       orient="auto"
       inkscape:stockid="TriangleOutM"
       inkscape:isstock="true">
      <path
         transform="scale(0.4)"
         style="fill-rule:evenodd;stroke:#000000;stroke-width:1pt;stroke-opacity:1;fill:#ff0000;fill-opacity:1"
         d="M 5.77,0.0 L -2.88,5.0 L -2.88,-5.0 L 5.77,0.0 z "
         id="path1083" />
    </marker>
    <marker
       style="overflow:visible"
       id="TriangleOutL"
       refX="0.0"
       refY="0.0"
       orient="auto"
       inkscape:stockid="TriangleOutL"
       inkscape:isstock="true">
      <path
         transform="scale(0.8)"
         style="fill-rule:evenodd;stroke:#000000;stroke-width:1pt;stroke-opacity:1;fill:#ff0000;fill-opacity:1"
         d="M 5.77,0.0 L -2.88,5.0 L -2.88,-5.0 L 5.77,0.0 z "
         id="path1080" />
    </marker>
    <marker
       style="overflow:visible"
       id="Arrow1Lstart"
       refX="0.0"
       refY="0.0"
       orient="auto"
       inkscape:stockid="Arrow1Lstart"
       inkscape:isstock="true">
      <path
         transform="scale(0.8) translate(12.5,0)"
         style="fill-rule:evenodd;stroke:#000000;stroke-width:1pt;stroke-opacity:1;fill:#ff0000;fill-opacity:1"
         d="M 0.0,0.0 L 5.0,-5.0 L -12.5,0.0 L 5.0,5.0 L 0.0,0.0 z "
         id="path938" />
    </marker>
    <marker
       style="overflow:visible"
       id="TriangleOutM-6"
       refX="0"
       refY="0"
       orient="auto"
       inkscape:stockid="TriangleOutM"
       inkscape:isstock="true">
      <path
         transform="scale(0.4)"
         style="fill:#000000;fill-opacity:1;fill-rule:evenodd;stroke:#000000;stroke-width:1pt;stroke-opacity:1"
         d="M 5.77,0 -2.88,5 V -5 Z"
         id="path1083-4" />
    </marker>
    <marker
       style="overflow:visible"
       id="TriangleOutM-6-4"
       refX="0"
       refY="0"
       orient="auto"
       inkscape:stockid="TriangleOutM"
       inkscape:isstock="true">
      <path
         transform="scale(0.4)"
         style="fill:#000000;fill-opacity:1;fill-rule:evenodd;stroke:#000000;stroke-width:1pt;stroke-opacity:1"
         d="M 5.77,0 -2.88,5 V -5 Z"
         id="path1083-4-7" />
    </marker>
    <marker
       style="overflow:visible"
       id="TriangleOutM-6-4-0"
       refX="0"
       refY="0"
       orient="auto"
       inkscape:stockid="TriangleOutM"
       inkscape:isstock="true">
      <path
         transform="scale(0.4)"
         style="fill:#000000;fill-opacity:1;fill-rule:evenodd;stroke:#000000;stroke-width:1pt;stroke-opacity:1"
         d="M 5.77,0 -2.88,5 V -5 Z"
         id="path1083-4-7-9" />
    </marker>
    <marker
       style="overflow:visible"
       id="TriangleOutM-6-4-2"
       refX="0"
       refY="0"
       orient="auto"
       inkscape:stockid="TriangleOutM"
       inkscape:isstock="true">
      <path
         transform="scale(0.4)"
         style="fill:#000000;fill-opacity:1;fill-rule:evenodd;stroke:#000000;stroke-width:1pt;stroke-opacity:1"
         d="M 5.77,0 -2.88,5 V -5 Z"
         id="path1083-4-7-6" />
    </marker>
    <marker
       style="overflow:visible"
       id="TriangleOutM-6-4-0-3"
       refX="0"
       refY="0"
       orient="auto"
       inkscape:stockid="TriangleOutM"
       inkscape:isstock="true">
      <path
         transform="scale(0.4)"
         style="fill:#000000;fill-opacity:1;fill-rule:evenodd;stroke:#000000;stroke-width:1pt;stroke-opacity:1"
         d="M 5.77,0 -2.88,5 V -5 Z"
         id="path1083-4-7-9-4" />
    </marker>
    <marker
       style="overflow:visible"
       id="TriangleOutM-6-4-0-3-2"
       refX="0"
       refY="0"
       orient="auto"
       inkscape:stockid="TriangleOutM"
       inkscape:isstock="true">
      <path
         transform="scale(0.4)"
         style="fill:#000000;fill-opacity:1;fill-rule:evenodd;stroke:#000000;stroke-width:1pt;stroke-opacity:1"
         d="M 5.77,0 -2.88,5 V -5 Z"
         id="path1083-4-7-9-4-7" />
    </marker>
    <marker
       style="overflow:visible"
       id="TriangleOutM-6-4-0-3-2-3"
       refX="0"
       refY="0"
       orient="auto"
       inkscape:stockid="TriangleOutM"
       inkscape:isstock="true">
      <path
         transform="scale(0.4)"
         style="fill:#000000;fill-opacity:1;fill-rule:evenodd;stroke:#000000;stroke-width:1pt;stroke-opacity:1"
         d="M 5.77,0 -2.88,5 V -5 Z"
         id="path1083-4-7-9-4-7-8" />
    </marker>
  </defs>
  <sodipodi:namedview
     id="base"
     pagecolor="#ffffff"
     bordercolor="#666666"
     borderopacity="1.0"
     inkscape:pageopacity="0.0"
     inkscape:pageshadow="2"
     inkscape:zoom="1.1304971"
     inkscape:cx="474.9734"
     inkscape:cy="126.71118"
     inkscape:document-units="mm"
     inkscape:current-layer="g3264"
     inkscape:document-rotation="0"
     showgrid="false"
     inkscape:snap-intersection-paths="true"
     inkscape:object-paths="true"
     inkscape:snap-smooth-nodes="true"
     inkscape:snap-midpoints="true"
     inkscape:window-width="1920"
     inkscape:window-height="1017"
     inkscape:window-x="-8"
     inkscape:window-y="-8"
     inkscape:window-maximized="1"
     inkscape:snap-nodes="true">
    <inkscape:grid
       type="xygrid"
       id="grid1023" />
  </sodipodi:namedview>
  <metadata
     id="metadata5">
    <rdf:RDF>
      <cc:Work
         rdf:about="">
        <dc:format>image/svg+xml</dc:format>
        <dc:type
           rdf:resource="http://purl.org/dc/dcmitype/StillImage" />
      </cc:Work>
    </rdf:RDF>
  </metadata>
  <g
     inkscape:label="Layer 1"
     inkscape:groupmode="layer"
     id="layer1">
    <g
       id="g3320">
      <g
         id="g1978"
         transform="translate(46.806247,35.936549)">
        <g
           id="g1556">
          <path
             id="rect835"
             style="fill:none;stroke:#000000;stroke-width:4.28194;stroke-linecap:round;stroke-linejoin:round;stroke-miterlimit:4;stroke-dasharray:none"
             d="m 147.14258,51.552734 c -44.25068,0 -79.875002,35.624326 -79.875002,79.874996 v 11.17774 h 79.875002 v -27.07031 c -6.33143,0 -11.42774,-5.09631 -11.42774,-11.42774 V 84.107422 c 0,-6.331429 5.09631,-11.429688 11.42774,-11.429688 z"
             transform="scale(0.26458333)" />
          <path
             id="rect835-5"
             style="fill:none;stroke:#000000;stroke-width:4.28194;stroke-linecap:round;stroke-linejoin:round;stroke-miterlimit:4;stroke-dasharray:none"
             d="m 147.14258,51.552734 v 21.125 c 6.33143,0 11.42773,5.098259 11.42773,11.429688 v 19.999998 c 0,6.33143 -5.0963,11.42774 -11.42773,11.42774 v 27.07031 h 79.875 v -11.17774 c 0,-44.25067 -35.62432,-79.874996 -79.875,-79.874996 z"
             transform="scale(0.26458333)" />
          <rect
             style="fill:none;stroke:#000000;stroke-width:1.06621;stroke-linecap:round;stroke-linejoin:round;stroke-miterlimit:4;stroke-dasharray:none"
             id="rect10"
             width="42.26712"
             height="59.087063"
             x="17.797987"
             y="13.640248"
             ry="21.13356" />
        </g>
        <g
           id="g1539-0-7"
           transform="matrix(0.80878564,1.6451857,-1.5947832,0.83434697,37.65663,-114.48633)">
          <path
             sodipodi:type="spiral"
             style="fill:none;fill-rule:evenodd;stroke:#000000;stroke-width:0.264583;stroke-miterlimit:4;stroke-dasharray:none;marker-end:url(#TriangleOutM-6-4)"
             id="path936-2-7"
             sodipodi:cx="72.507553"
             sodipodi:cy="30.273571"
             sodipodi:expansion="1"
             sodipodi:revolution="1.4583333"
             sodipodi:radius="2.5588765"
             sodipodi:argument="-5.497787"
             sodipodi:t0="0.70715767"
             transform="matrix(0.36093523,0.94070826,-0.90675483,0.40729814,74.204862,-49.556705)"
             d="m 73.51267,31.778276 c -0.836157,0.76661 -2.158278,0.573253 -2.874591,-0.255929 -0.598981,-0.693362 -0.712431,-1.697603 -0.346578,-2.528213" />
        </g>
        <g
           id="g1539-0-7-8"
           transform="matrix(-0.80878564,1.6451857,1.5947832,0.83434697,40.20699,-114.32733)">
          <path
             sodipodi:type="spiral"
             style="fill:none;fill-rule:evenodd;stroke:#000000;stroke-width:0.264583;stroke-miterlimit:4;stroke-dasharray:none;marker-end:url(#TriangleOutM-6-4-0)"
             id="path936-2-7-2"
             sodipodi:cx="72.507553"
             sodipodi:cy="30.273571"
             sodipodi:expansion="1"
             sodipodi:revolution="1.4583333"
             sodipodi:radius="2.5588765"
             sodipodi:argument="-5.497787"
             sodipodi:t0="0.70715767"
             transform="matrix(0.36093523,0.94070826,-0.90675483,0.40729814,74.204862,-49.556705)"
             d="m 73.51267,31.778276 c -0.836157,0.76661 -2.158278,0.573253 -2.874591,-0.255929 -0.598981,-0.693362 -0.712431,-1.697603 -0.346578,-2.528213" />
        </g>
      </g>
      <g
         id="g2459"
         transform="translate(0,6.2112555)">
        <rect
           style="fill:none;stroke:#000000;stroke-width:1.0056;stroke-linecap:round;stroke-linejoin:round;stroke-miterlimit:4;stroke-dasharray:none"
           id="rect2018"
           width="14.197155"
           height="13.908092"
           x="71.423676"
           y="23.778349"
           transform="matrix(1,0,-0.14868665,0.98888436,0,0)" />
        <text
           xml:space="preserve"
           style="font-style:italic;font-variant:normal;font-weight:normal;font-stretch:normal;font-size:7.05556px;line-height:1.25;font-family:sans-serif;-inkscape-font-specification:'sans-serif Italic';fill:#000000;fill-opacity:1;stroke:none;stroke-width:0.264583"
           x="69.358231"
           y="30.195143"
           id="text2022"><tspan
             sodipodi:role="line"
             id="tspan2020"
             x="69.358231"
             y="30.195143"
             style="font-style:italic;font-variant:normal;font-weight:normal;font-stretch:normal;font-size:7.05556px;font-family:sans-serif;-inkscape-font-specification:'sans-serif Italic';stroke-width:0.264583">A</tspan></text>
        <g
           id="g1539-0-7-8-1"
           transform="matrix(-0.80878564,1.6451857,1.5947832,0.83434697,83.652961,-110.0448)">
          <path
             sodipodi:type="spiral"
             style="fill:none;fill-rule:evenodd;stroke:#000000;stroke-width:0.264583;stroke-miterlimit:4;stroke-dasharray:none;marker-end:url(#TriangleOutM-6-4-0-3)"
             id="path936-2-7-2-6"
             sodipodi:cx="72.507553"
             sodipodi:cy="30.273571"
             sodipodi:expansion="1"
             sodipodi:revolution="1.4583333"
             sodipodi:radius="2.5588765"
             sodipodi:argument="-5.497787"
             sodipodi:t0="0.70715767"
             transform="matrix(0.36093523,0.94070826,-0.90675483,0.40729814,74.204862,-49.556705)"
             d="m 73.51267,31.778276 c -0.836157,0.76661 -2.158278,0.573253 -2.874591,-0.255929 -0.598981,-0.693362 -0.712431,-1.697603 -0.346578,-2.528213" />
        </g>
      </g>
      <g
         id="g2484"
         transform="translate(0,6.2112555)">
        <rect
           style="fill:none;stroke:#000000;stroke-width:1.0056;stroke-linecap:round;stroke-linejoin:round;stroke-miterlimit:4;stroke-dasharray:none"
           id="rect2018-9"
           width="14.197155"
           height="13.908092"
           x="95.395882"
           y="23.778349"
           transform="matrix(1,0,-0.14868665,0.98888436,0,0)" />
        <text
           xml:space="preserve"
           style="font-style:italic;font-variant:normal;font-weight:normal;font-stretch:normal;font-size:7.05556px;line-height:1.25;font-family:sans-serif;-inkscape-font-specification:'sans-serif Italic';fill:#000000;fill-opacity:1;stroke:none;stroke-width:0.264583"
           x="93.330437"
           y="30.195143"
           id="text2022-7"><tspan
             sodipodi:role="line"
             id="tspan2020-4"
             x="93.330437"
             y="30.195143"
             style="font-style:italic;font-variant:normal;font-weight:normal;font-stretch:normal;font-size:7.05556px;font-family:sans-serif;-inkscape-font-specification:'sans-serif Italic';stroke-width:0.264583">D</tspan></text>
        <g
           id="g1539-0-7-8-1-9"
           transform="matrix(0.80878564,1.6451857,-1.5947832,0.83434697,86.784804,-110.0448)">
          <path
             sodipodi:type="spiral"
             style="fill:none;fill-rule:evenodd;stroke:#000000;stroke-width:0.264583;stroke-miterlimit:4;stroke-dasharray:none;marker-end:url(#TriangleOutM-6-4-0-3-2)"
             id="path936-2-7-2-6-9"
             sodipodi:cx="72.507553"
             sodipodi:cy="30.273571"
             sodipodi:expansion="1"
             sodipodi:revolution="1.4583333"
             sodipodi:radius="2.5588765"
             sodipodi:argument="-5.497787"
             sodipodi:t0="0.70715767"
             transform="matrix(0.36093523,0.94070826,-0.90675483,0.40729814,74.204862,-49.556705)"
             d="m 73.51267,31.778276 c -0.836157,0.76661 -2.158278,0.573253 -2.874591,-0.255929 -0.598981,-0.693362 -0.712431,-1.697603 -0.346578,-2.528213" />
        </g>
      </g>
    </g>
    <g
       id="g3264">
      <g
         id="g1113">
        <rect
           style="fill:none;stroke:#000000;stroke-width:1.0056;stroke-linecap:round;stroke-linejoin:round;stroke-miterlimit:4;stroke-dasharray:none"
           id="rect2018-9-4"
           width="14.197155"
           height="13.908092"
           x="151.61418"
           y="25.533823"
           transform="matrix(1,0,-0.14868665,0.98888436,0,0)" />
        <text
           xml:space="preserve"
           style="font-style:italic;font-variant:normal;font-weight:normal;font-stretch:normal;font-size:7.05556px;line-height:1.25;font-family:sans-serif;-inkscape-font-specification:'sans-serif Italic';fill:#000000;fill-opacity:1;stroke:none;stroke-width:0.264583"
           x="149.28772"
           y="31.931101"
           id="text2022-7-9"><tspan
             sodipodi:role="line"
             id="tspan2020-4-8"
             x="149.28772"
             y="31.931101"
             style="font-style:italic;font-variant:normal;font-weight:normal;font-stretch:normal;font-size:7.05556px;font-family:sans-serif;-inkscape-font-specification:'sans-serif Italic';stroke-width:0.264583">R</tspan></text>
        <text
           xml:space="preserve"
           style="font-style:italic;font-variant:normal;font-weight:normal;font-stretch:normal;font-size:9.87778px;line-height:1.25;font-family:sans-serif;-inkscape-font-specification:'sans-serif Italic';fill:#000000;fill-opacity:1;stroke:none;stroke-width:0.264583"
           x="136.1902"
           y="47.446877"
           id="text2022-7-9-4"><tspan
             sodipodi:role="line"
             id="tspan2020-4-8-1"
             x="136.1902"
             y="47.446877"
             style="font-style:normal;font-variant:normal;font-weight:normal;font-stretch:normal;font-size:9.87778px;font-family:sans-serif;-inkscape-font-specification:sans-serif;stroke-width:0.264583">Restart</tspan></text>
      </g>
      <g
         id="g1120"
         inkscape:export-xdpi="99.614487"
         inkscape:export-ydpi="99.614487">
        <rect
           style="fill:none;stroke:#000000;stroke-width:1.0056;stroke-linecap:round;stroke-linejoin:round;stroke-miterlimit:4;stroke-dasharray:none"
           id="rect2018-9-4-0"
           width="14.197155"
           height="13.908092"
           x="156.06081"
           y="59.480972"
           transform="matrix(1,0,-0.14868665,0.98888436,0,0)" />
        <text
           xml:space="preserve"
           style="font-style:italic;font-variant:normal;font-weight:normal;font-stretch:normal;font-size:7.05556px;line-height:1.25;font-family:sans-serif;-inkscape-font-specification:'sans-serif Italic';fill:#000000;fill-opacity:1;stroke:none;stroke-width:0.264583"
           x="148.68687"
           y="65.500908"
           id="text2022-7-9-2"><tspan
             sodipodi:role="line"
             id="tspan2020-4-8-7"
             x="148.68687"
             y="65.500908"
             style="font-style:italic;font-variant:normal;font-weight:normal;font-stretch:normal;font-size:7.05556px;font-family:sans-serif;-inkscape-font-specification:'sans-serif Italic';stroke-width:0.264583">T</tspan></text>
        <text
           xml:space="preserve"
           style="font-style:italic;font-variant:normal;font-weight:normal;font-stretch:normal;font-size:9.87778px;line-height:1.25;font-family:sans-serif;-inkscape-font-specification:'sans-serif Italic';fill:#000000;fill-opacity:1;stroke:none;stroke-width:0.264583"
           x="135.58936"
           y="81.016678"
           id="text2022-7-9-4-9"><tspan
             sodipodi:role="line"
             id="tspan2020-4-8-1-7"
             x="135.58936"
             y="81.016678"
             style="font-style:normal;font-variant:normal;font-weight:normal;font-stretch:normal;font-size:9.87778px;font-family:sans-serif;-inkscape-font-specification:sans-serif;stroke-width:0.264583">To title</tspan></text>
      </g>
    </g>
    <g
       id="g3589">
      <rect
         style="fill:#a05a2c;stroke:#000000;stroke-width:0;stroke-linecap:round;stroke-linejoin:round;stroke-miterlimit:4;stroke-dasharray:none"
         id="rect3380-7"
         width="85.271675"
         height="4.333663"
         x="67.045395"
         y="131.8277" />
      <rect
         style="fill:#803300;stroke:#000000;stroke-width:0;stroke-linecap:round;stroke-linejoin:round;stroke-miterlimit:4;stroke-dasharray:none"
         id="rect3380-7-6"
         width="85.271675"
         height="1.2280358"
         x="67.045395"
         y="132.60411" />
      <path
         id="path3382"
         style="fill:#b3b3b3;stroke:#000000;stroke-width:0;stroke-linecap:round;stroke-linejoin:round;stroke-miterlimit:4;stroke-dasharray:none"
         inkscape:transform-center-x="-2.4547193"
         inkscape:transform-center-y="-2.5532702e-06"
         d="m 152.31732,124.28543 -3.58842,9.70897 3.58842,9.70897 2.48563,-6.72621 12.24267,-2.98276 -12.24267,-2.98225 z" />
      <path
         id="path3382-3"
         style="fill:#808080;stroke:#000000;stroke-width:0;stroke-linecap:round;stroke-linejoin:round;stroke-miterlimit:4;stroke-dasharray:none"
         inkscape:transform-center-x="-1.7115045"
         inkscape:transform-center-y="-1.7802152e-06"
         d="m 152.34,127.22502 -2.50195,6.76938 2.50195,6.76938 1.73306,-4.68971 8.53595,-2.07967 -8.53595,-2.07931 z" />
    </g>
    <g
       id="g1034"
       transform="translate(2.577877,-87.325582)">
      <g
         id="g1021"
         inkscape:export-xdpi="300"
         inkscape:export-ydpi="300"
         transform="translate(-49.946366,-19.334077)">
        <g
           id="g1013">
          <path
             style="fill:#ff0000;stroke:#000000;stroke-width:0.5;stroke-linecap:butt;stroke-linejoin:miter;stroke-miterlimit:4;stroke-dasharray:none;stroke-dashoffset:0;stroke-opacity:1"
             d="m 75.708633,193.51383 c -1.931815,-1.99164 -10.067646,-6.98035 -10.357104,-17.85438 -0.224769,-8.44388 8.503787,-9.32919 11.72423,-9.3742 9.60355,-0.13421 11.337994,6.89648 11.355788,9.41902 0.07928,11.23928 -12.722914,17.80956 -12.722914,17.80956 z"
             id="path63"
             sodipodi:nodetypes="csssc" />
          <g
             id="path65"
             style="opacity:1">
            <path
               style="color:#000000;font-style:normal;font-variant:normal;font-weight:normal;font-stretch:normal;font-size:medium;line-height:normal;font-family:sans-serif;font-variant-ligatures:normal;font-variant-position:normal;font-variant-caps:normal;font-variant-numeric:normal;font-variant-alternates:normal;font-variant-east-asian:normal;font-feature-settings:normal;font-variation-settings:normal;text-indent:0;text-align:start;text-decoration:none;text-decoration-line:none;text-decoration-style:solid;text-decoration-color:#000000;letter-spacing:normal;word-spacing:normal;text-transform:none;writing-mode:lr-tb;direction:ltr;text-orientation:mixed;dominant-baseline:auto;baseline-shift:baseline;text-anchor:start;white-space:normal;shape-padding:0;shape-margin:0;inline-size:0;clip-rule:nonzero;display:inline;overflow:visible;visibility:visible;isolation:auto;mix-blend-mode:normal;color-interpolation:sRGB;color-interpolation-filters:linearRGB;solid-color:#000000;solid-opacity:1;vector-effect:none;fill:#ffd5d5;fill-opacity:1;fill-rule:nonzero;stroke:none;stroke-width:0.264583px;stroke-linecap:butt;stroke-linejoin:miter;stroke-miterlimit:4;stroke-dasharray:none;stroke-dashoffset:0;stroke-opacity:1;color-rendering:auto;image-rendering:auto;shape-rendering:auto;text-rendering:auto;enable-background:accumulate;stop-color:#000000;stop-opacity:1"
               d="m 71.093014,170.13988 c -2.960531,2.37648 -4.148772,5.47799 -1.913269,9.30453 1.494188,2.55762 3.307396,2.66178 3.423743,0.14097 0.06042,-1.30908 -1.087544,-1.89313 -1.450058,-3.74598 -0.386703,-1.97649 2.45343,-4.75164 1.973689,-5.7398 -0.580876,-1.19649 -2.034105,0.0403 -2.034105,0.0403 z"
               id="path69" />
            <path
               style="color:#000000;font-style:normal;font-variant:normal;font-weight:normal;font-stretch:normal;font-size:medium;line-height:normal;font-family:sans-serif;font-variant-ligatures:normal;font-variant-position:normal;font-variant-caps:normal;font-variant-numeric:normal;font-variant-alternates:normal;font-variant-east-asian:normal;font-feature-settings:normal;font-variation-settings:normal;text-indent:0;text-align:start;text-decoration:none;text-decoration-line:none;text-decoration-style:solid;text-decoration-color:#000000;letter-spacing:normal;word-spacing:normal;text-transform:none;writing-mode:lr-tb;direction:ltr;text-orientation:mixed;dominant-baseline:auto;baseline-shift:baseline;text-anchor:start;white-space:normal;shape-padding:0;shape-margin:0;inline-size:0;clip-rule:nonzero;display:inline;overflow:visible;visibility:visible;isolation:auto;mix-blend-mode:normal;color-interpolation:sRGB;color-interpolation-filters:linearRGB;solid-color:#000000;solid-opacity:1;vector-effect:none;fill:#000000;fill-opacity:1;fill-rule:nonzero;stroke:none;stroke-linecap:butt;stroke-linejoin:miter;stroke-miterlimit:4;stroke-dasharray:none;stroke-dashoffset:0;stroke-opacity:1;color-rendering:auto;image-rendering:auto;shape-rendering:auto;text-rendering:auto;enable-background:accumulate;stop-color:#000000;stop-opacity:1"
               d="m 72.595703,169.47266 c -0.254799,-0.0612 -0.515334,-0.011 -0.748047,0.0742 -0.345304,0.12645 -0.493772,0.26536 -0.623047,0.36523 v -0.0488 l -0.214843,0.17383 c -7.62e-4,6.1e-4 -0.0012,0.001 -0.002,0.002 -1.494229,1.2 -2.552711,2.59171 -2.949218,4.17774 -0.396709,1.58683 -0.122942,3.35939 1.007812,5.29492 0.758457,1.29826 1.597157,2.00448 2.335938,2.03906 0.36939,0.0173 0.705188,-0.15544 0.935547,-0.49023 0.230358,-0.33479 0.368619,-0.8227 0.398437,-1.46875 0.03203,-0.69399 -0.26044,-1.20165 -0.585937,-1.74414 -0.325498,-0.5425 -0.69048,-1.13004 -0.867188,-2.03321 -0.179393,-0.9169 0.407884,-2.0892 1.007813,-3.15039 0.299964,-0.53059 0.599001,-1.03318 0.796875,-1.47461 0.197873,-0.44142 0.311161,-0.83338 0.158203,-1.14843 -0.158595,-0.32668 -0.395591,-0.50721 -0.650391,-0.56836 z m -0.0625,0.25781 c 0.181052,0.0435 0.342766,0.15616 0.474609,0.42773 0.08691,0.17902 0.02553,0.50523 -0.162109,0.92383 -0.18764,0.4186 -0.483393,0.9174 -0.785156,1.45117 -0.603527,1.06755 -1.24442,2.27245 -1.037109,3.33203 0.185806,0.94968 0.576382,1.57913 0.90039,2.11915 0.324008,0.54001 0.575264,0.98061 0.546875,1.5957 -0.02836,0.61435 -0.160576,1.0573 -0.349609,1.33203 -0.189034,0.27473 -0.421803,0.38835 -0.707032,0.375 -0.570457,-0.0267 -1.383409,-0.6508 -2.11914,-1.91016 -1.104749,-1.89101 -1.357184,-3.58103 -0.978516,-5.0957 0.377876,-1.5115 1.391414,-2.85694 2.851563,-4.03125 0.0031,-0.002 0.0047,-0.005 0.0078,-0.008 l 0.0039,-0.002 c 0,0 0.351403,-0.29648 0.757812,-0.44531 0.203204,-0.0744 0.414651,-0.10791 0.595703,-0.0644 z"
               id="path71" />
          </g>
          <path
             style="fill:none;stroke:#000000;stroke-width:0.5;stroke-linecap:round;stroke-linejoin:miter;stroke-miterlimit:4;stroke-dasharray:none;stroke-opacity:1"
             d="m 75.691356,193.51848 c -0.09023,1.13118 -3.216663,1.06289 0.01047,2.62151 1.242419,0.60006 4.789856,2.05387 1.675333,2.12266 -3.510939,0.0775 -4.493953,1.18911 -2.966542,1.61858 1.79149,0.50371 4.512442,1.04595 3.013038,1.98049 -0.977408,0.60919 -6.065145,0.50668 -2.480225,2.07261 2.519906,1.10072 5.787712,2.25253 2.631077,2.40165 -0.949819,0.0449 -7.350085,-0.43756 -2.270344,1.70891 2.97859,1.25861 0.508626,3.26311 0.508626,3.26311"
             id="path1006"
             sodipodi:nodetypes="csssssssc" />
        </g>
      </g>
    </g>
    <g
       id="g1275"
       transform="translate(107.30413,7.0891617)">
      <rect
         style="fill:#b3b3b3;stroke:#000000;stroke-width:4;stroke-linecap:round;stroke-linejoin:round;stroke-miterlimit:4;stroke-dasharray:none;stroke-dashoffset:0"
         id="rect1036"
         width="50"
         height="33.333332"
         x="-102.07616"
         y="218.98869" />
      <rect
         style="fill:#999999;stroke:#000000;stroke-width:4;stroke-linecap:round;stroke-linejoin:round;stroke-miterlimit:4;stroke-dasharray:none;stroke-dashoffset:0"
         id="rect1036-7"
         width="50"
         height="33.333332"
         x="-52.076157"
         y="218.98869" />
      <rect
         style="fill:#cccccc;stroke:#000000;stroke-width:4;stroke-linecap:round;stroke-linejoin:round;stroke-miterlimit:4;stroke-dasharray:none;stroke-dashoffset:0"
         id="rect1036-8"
         width="50"
         height="33.333332"
         x="-77.076157"
         y="185.65536" />
      <rect
         style="fill:#b3b3b3;stroke:#000000;stroke-width:4;stroke-linecap:round;stroke-linejoin:round;stroke-miterlimit:4;stroke-dasharray:none;stroke-dashoffset:0"
         id="rect1036-4"
         width="25"
         height="33.333332"
         x="-27.076157"
         y="185.65536" />
      <rect
         style="fill:#999999;stroke:#000000;stroke-width:4;stroke-linecap:round;stroke-linejoin:round;stroke-miterlimit:4;stroke-dasharray:none;stroke-dashoffset:0"
         id="rect1036-4-9"
         width="25"
         height="33.333332"
         x="-102.07616"
         y="185.65535" />
      <rect
         style="fill:#b3b3b3;stroke:#000000;stroke-width:4;stroke-linecap:round;stroke-linejoin:round;stroke-miterlimit:4;stroke-dasharray:none;stroke-dashoffset:0"
         id="rect1036-46"
         width="50"
         height="33.333332"
         x="-102.07617"
         y="152.32201" />
      <rect
         style="fill:#999999;stroke:#000000;stroke-width:4;stroke-linecap:round;stroke-linejoin:round;stroke-miterlimit:4;stroke-dasharray:none;stroke-dashoffset:0"
         id="rect1036-7-6"
         width="50"
         height="33.333332"
         x="-52.076157"
         y="152.32202" />
    </g>
    <path
       id="rect1036-46-1-0"
       style="fill:none;stroke:#000000;stroke-width:4;stroke-linecap:round;stroke-linejoin:round;stroke-miterlimit:4;stroke-dasharray:none;stroke-dashoffset:0"
       d="m -119.41475,181.97279 v 33.33337 h 17.91053 c 3.927401,0 7.089491,-3.16158 7.089491,-7.08897 v -19.1549 c 0,-3.9274 -3.16209,-7.0895 -7.089491,-7.0895 z" />
    <rect
       style="fill:none;stroke:#000000;stroke-width:4;stroke-linecap:round;stroke-linejoin:round;stroke-miterlimit:4;stroke-dasharray:none;stroke-dashoffset:0"
       id="rect1036-46-1-38"
       width="99.999756"
       height="99.999565"
       x="-119.41475"
       y="148.63969"
       ry="0" />
    <path
       id="rect1036-46-1-2-3"
       style="fill:none;stroke:#000000;stroke-width:4;stroke-linecap:round;stroke-linejoin:miter;stroke-miterlimit:4;stroke-dasharray:none;stroke-dashoffset:0"
       d="m 116.46149,197.11776 h 17.91053 c 3.9274,0 7.08897,3.1621 7.08897,7.0895 v 19.1549 c 0,3.92739 -3.16157,7.08897 -7.08897,7.08897 h -17.91053 m 24.9995,-33.33308 h -25 v -33.33333 h 100 v 33.33333 h -25 v 33.33332 h 25 v 33.33333 h -100 v -33.33333 h 25 v -33.33332 m -17.91084,33.33333 h 35.82168 c 3.9274,0 7.08916,3.16176 7.08916,7.08916 v 19.15501 c 0,3.92739 -3.16176,7.08916 -7.08916,7.08916 h -35.82168 c -3.92739,0 -7.08916,-3.16177 -7.08916,-7.08916 v -19.15501 c 0,-3.9274 3.16177,-7.08916 7.08916,-7.08916 z m 50,0 h 35.82168 c 3.9274,0 7.08916,3.16176 7.08916,7.08916 v 19.15501 c 0,3.92739 -3.16176,7.08916 -7.08916,7.08916 h -35.82168 c -3.92739,0 -7.08916,-3.16177 -7.08916,-7.08916 v -19.15501 c 0,-3.9274 3.16177,-7.08916 7.08916,-7.08916 z m 42.91034,-33.33362 h -17.91053 c -3.9274,0 -7.08897,3.1621 -7.08897,7.0895 v 19.1549 c 0,3.92739 3.16157,7.08897 7.08897,7.08897 h 17.91053 m -67.91034,-33.33308 h 35.82168 c 3.9274,0 7.08916,3.16176 7.08916,7.08916 v 19.15501 c 0,3.92739 -3.16176,7.08916 -7.08916,7.08916 h -35.82168 c -3.92739,0 -7.08916,-3.16177 -7.08916,-7.08916 v -19.15501 c 0,-3.9274 3.16177,-7.08916 7.08916,-7.08916 z m 25,-33.33333 h 35.82168 c 3.9274,0 7.08916,3.16177 7.08916,7.08916 v 19.15501 c 0,3.9274 -3.16176,7.08916 -7.08916,7.08916 h -35.82168 c -3.92739,0 -7.08916,-3.16176 -7.08916,-7.08916 v -19.15501 c 0,-3.92739 3.16177,-7.08916 7.08916,-7.08916 z m -50,0 h 35.82168 c 3.9274,0 7.08916,3.16177 7.08916,7.08916 v 19.15501 c 0,3.9274 -3.16176,7.08916 -7.08916,7.08916 h -35.82168 c -3.92739,0 -7.08916,-3.16176 -7.08916,-7.08916 v -19.15501 c 0,-3.92739 3.16177,-7.08916 7.08916,-7.08916 z"
       inkscape:export-xdpi="300"
       inkscape:export-ydpi="300" />
  </g>
</svg>
